<svg xmlns="http://www.w3.org/2000/svg" version="1.1" xmlns:xlink="http://www.w3.org/1999/xlink" width="200" height="200"><svg xmlns="http://www.w3.org/2000/svg" version="1.1" xmlns:xlink="http://www.w3.org/1999/xlink" viewBox="0 0 200 200"><rect width="200" height="200" fill="url('#gradient')"></rect><defs><linearGradient id="SvgjsLinearGradient1006" gradientTransform="rotate(151 0.5 0.5)"><stop offset="0%" stop-color="#304b63"></stop><stop offset="100%" stop-color="#261b1d"></stop></linearGradient></defs><g><g fill="#fffdfa" transform="matrix(4.299095186391603,0,0,4.299095186391603,37.383249127213354,130.56594221572104)" stroke="#2b3c33" stroke-width="0.2"><path d="M10.03-8.30L10.03-5.66L4.50-5.66L4.50 0L1.07 0L1.07-14.22L10.59-14.22L10.59-11.57L4.50-11.57L4.50-8.30L10.03-8.30ZM21.04-14.22L23.03-5.30L24.66-14.22L28.06-14.22L25.04 0L21.48 0L19.58-8.11L17.71 0L14.17 0L11.14-14.22L14.55-14.22L16.18-5.30L18.13-14.22L21.04-14.22Z"></path></g></g></svg><style>@media (prefers-color-scheme: light) { :root { filter: none; } }
@media (prefers-color-scheme: dark) { :root { filter: none; } }
</style></svg>